<svg xmlns="http://www.w3.org/2000/svg" viewBox="0 0 100 100"><path d="M17.41,62.55V60.86a4.66,4.66,0,0,1,4.66-4.65H48.45v6.34a8.65,8.65,0,0,1,3.1,0V56.21H77.93a4.66,4.66,0,0,1,4.66,4.65v1.69a9.82,9.82,0,0,1,1.55-.14,9.92,9.92,0,0,1,1.55.14V60.86a7.77,7.77,0,0,0-7.76-7.76H51.55V47.86h-3.1V53.1H22.07a7.77,7.77,0,0,0-7.76,7.76v1.69a9.92,9.92,0,0,1,1.55-.14A9.82,9.82,0,0,1,17.41,62.55Z"/><path d="M37.77,36a1.73,1.73,0,0,0,1.23-.5l1.18-1.18a1.74,1.74,0,1,0-2.46-2.46l-1.18,1.17A1.78,1.78,0,0,0,36,34.3,1.75,1.75,0,0,0,37.77,36Z"/><path d="M42.43,40.69a1.73,1.73,0,0,0,1.23-.51L44.84,39a1.75,1.75,0,0,0-1.23-3,1.78,1.78,0,0,0-1.24.51L41.2,37.72A1.72,1.72,0,0,0,40.69,39,1.74,1.74,0,0,0,42.43,40.69Z"/><path d="M42.24,18.32a.65.65,0,0,0,.64.65h5.83a1.55,1.55,0,0,0,1.1-.46l2.65-2.65h2.46a9,9,0,0,0,6.4-2.65l2.19,2.2a13,13,0,0,1-1.33,1.13l7.14,7.14A11.61,11.61,0,0,0,51.9,8.4l-9.47,9.47A.64.64,0,0,0,42.24,18.32Z"/><path d="M34.29,26.72a1.78,1.78,0,0,0-1.23.51l-1.17,1.18a1.72,1.72,0,0,0-.51,1.23,1.74,1.74,0,0,0,3,1.23l1.18-1.18a1.75,1.75,0,0,0-1.24-3Z"/><path d="M47.08,45.34a1.73,1.73,0,0,0,1.23-.5l1.18-1.18A1.74,1.74,0,1,0,47,41.2l-1.18,1.17a1.78,1.78,0,0,0-.51,1.24A1.75,1.75,0,0,0,47.08,45.34Z"/><path d="M34.29,23.62a4.83,4.83,0,0,1,4.83,4.67A4.84,4.84,0,0,1,43.78,33a4.82,4.82,0,0,1,4.65,4.65,4.84,4.84,0,0,1,4.29,6.72l.52.52a1.74,1.74,0,0,0,2.46-2.47l-6.8-6.79,2.2-2.19,6.79,6.79a1.74,1.74,0,1,0,2.46-2.46l-6.79-6.8,2.19-2.19,6.8,6.8A1.74,1.74,0,0,0,65,33.06l-6.8-6.79,2.2-2.19,6.79,6.79a1.74,1.74,0,1,0,2.46-2.46L59.37,18.12a12.14,12.14,0,0,1-4.45.85H53.75L52,20.71a4.67,4.67,0,0,1-3.3,1.36H42.88a3.75,3.75,0,0,1-2.64-6.4l7.55-7.55A11.5,11.5,0,0,0,39.89,5a11.61,11.61,0,0,0-8.45,19.57A4.78,4.78,0,0,1,34.29,23.62Z"/><path d="M50,81A10.88,10.88,0,0,0,39.14,91.9V95h3.1V88.79h3.1V95h9.32V88.79h3.1V95h3.1V91.9A10.88,10.88,0,0,0,50,81Z"/><circle cx="50" cy="71.72" r="6.21"/><path d="M84.14,81A10.88,10.88,0,0,0,73.28,91.9V95h3.1V88.79h3.1V95h9.31V88.79H91.9V95H95V91.9A10.88,10.88,0,0,0,84.14,81Z"/><circle cx="84.14" cy="71.72" r="6.21"/><circle cx="15.86" cy="71.72" r="6.21"/><path d="M15.86,81A10.88,10.88,0,0,0,5,91.9V95H8.1V88.79h3.11V95h9.31V88.79h3.1V95h3.1V91.9A10.88,10.88,0,0,0,15.86,81Z"/><path d="M59.31,59.31h3.1v3.1h-3.1Z"/><path d="M65.52,59.31h3.1v3.1h-3.1Z"/><path d="M71.72,59.31h3.11v3.1H71.72Z"/><path d="M25.17,59.31h3.11v3.1H25.17Z"/><path d="M31.38,59.31h3.1v3.1h-3.1Z"/><path d="M37.59,59.31h3.1v3.1h-3.1Z"/></svg>