<svg xmlns="http://www.w3.org/2000/svg" viewBox="0 0 100 100"><circle cx="21.88" cy="59.52" r="1.41"/><path d="M50,44.05A15.47,15.47,0,1,0,65.47,59.52,15.49,15.49,0,0,0,50,44.05Zm.07,14.06a5.63,5.63,0,0,1,1.59,11,.35.35,0,0,0-.25.34v1.27a1.44,1.44,0,0,1-1.32,1.45,1.4,1.4,0,0,1-1.5-1.4V69.46a.34.34,0,0,0-.24-.34,5.62,5.62,0,0,1-4-5.28,1.45,1.45,0,0,1,1.34-1.51,1.42,1.42,0,0,1,1.47,1.41,2.82,2.82,0,0,0,2.94,2.81,2.85,2.85,0,0,0,2.68-2.68A2.81,2.81,0,0,0,50,60.93a5.62,5.62,0,0,1-1.66-11,.35.35,0,0,0,.25-.34V48.32a1.44,1.44,0,0,1,1.32-1.45,1.4,1.4,0,0,1,1.5,1.4v1.31a.34.34,0,0,0,.24.34,5.62,5.62,0,0,1,4,5.28,1.45,1.45,0,0,1-1.34,1.51,1.42,1.42,0,0,1-1.47-1.41,2.81,2.81,0,1,0-5.62,0,2.86,2.86,0,0,0,2.88,2.78Z"/><path d="M90.78,35.61H9.22A4.23,4.23,0,0,0,5,39.83V79.21a4.23,4.23,0,0,0,4.22,4.22H90.78A4.23,4.23,0,0,0,95,79.21V39.83a4.23,4.23,0,0,0-4.22-4.22ZM34.53,77.8H16.25a1.4,1.4,0,0,1-1.41-1.39A2.82,2.82,0,0,0,12,73.58a1.4,1.4,0,0,1-1.4-1.4V46.86a1.4,1.4,0,0,1,1.4-1.4,2.82,2.82,0,0,0,2.82-2.83,1.4,1.4,0,0,1,1.41-1.39H34.48a1.43,1.43,0,0,1,1.45,1.31,1.4,1.4,0,0,1-1.4,1.5H17.87a.53.53,0,0,0-.5.36A5.68,5.68,0,0,1,13.8,48a.51.51,0,0,0-.36.49V70.56a.51.51,0,0,0,.36.49,5.65,5.65,0,0,1,3.57,3.58.53.53,0,0,0,.5.36H34.48a1.43,1.43,0,0,1,1.45,1.31,1.4,1.4,0,0,1-1.4,1.5ZM26.09,59.52a4.22,4.22,0,1,1-4.21-4.22A4.22,4.22,0,0,1,26.09,59.52ZM50,77.8A18.28,18.28,0,1,1,68.28,59.52,18.3,18.3,0,0,1,50,77.8Zm39.38-5.62a1.4,1.4,0,0,1-1.4,1.4,2.82,2.82,0,0,0-2.82,2.83,1.4,1.4,0,0,1-1.41,1.39H65.52a1.43,1.43,0,0,1-1.45-1.31,1.4,1.4,0,0,1,1.4-1.5H82.13a.53.53,0,0,0,.5-.36,5.65,5.65,0,0,1,3.57-3.58.51.51,0,0,0,.36-.49V48.48A.51.51,0,0,0,86.2,48a5.68,5.68,0,0,1-3.57-3.58.53.53,0,0,0-.5-.36H65.52a1.43,1.43,0,0,1-1.45-1.31,1.4,1.4,0,0,1,1.4-1.5H83.75a1.4,1.4,0,0,1,1.41,1.39A2.82,2.82,0,0,0,88,45.46a1.4,1.4,0,0,1,1.4,1.4V72.18ZM73.91,59.52a4.22,4.22,0,1,1,4.21,4.22A4.22,4.22,0,0,1,73.91,59.52Z"/><circle cx="78.13" cy="59.52" r="1.41"/><path d="M89.72,28.42A4.21,4.21,0,0,0,85,24.77L31.23,32.45a.18.18,0,0,0,0,.35H89.87a.35.35,0,0,0,.35-.39Z"/><path d="M81.84,22.37a.35.35,0,0,0,.29-.43l-.54-2.17a4.21,4.21,0,0,0-5.2-3.05L32.18,29.12a.17.17,0,0,0,.07.34Z"/></svg>