<svg xmlns="http://www.w3.org/2000/svg" viewBox="0 0 100 100"><path d="M74.77,5H25.23a8.67,8.67,0,0,0-8.66,8.66V86.34A8.67,8.67,0,0,0,25.23,95H74.77a8.67,8.67,0,0,0,8.66-8.66V13.66A8.67,8.67,0,0,0,74.77,5ZM28.44,20a2.64,2.64,0,0,1,2.64-2.64H68.92A2.64,2.64,0,0,1,71.56,20v5.2a2.64,2.64,0,0,1-2.64,2.64H31.08a2.64,2.64,0,0,1-2.64-2.64Zm8.88,59.2a2.64,2.64,0,0,1-2.64,2.64h-3.6a2.64,2.64,0,0,1-2.64-2.64V76.67A2.64,2.64,0,0,1,31.08,74h3.6a2.64,2.64,0,0,1,2.64,2.64Zm0-15.6a2.64,2.64,0,0,1-2.64,2.64h-3.6a2.64,2.64,0,0,1-2.64-2.64v-2.5a2.64,2.64,0,0,1,2.64-2.63h3.6a2.64,2.64,0,0,1,2.64,2.63Zm17.33,15.6A2.64,2.64,0,0,1,52,81.8H48.41a2.64,2.64,0,0,1-2.63-2.64V76.67A2.64,2.64,0,0,1,48.41,74H52a2.64,2.64,0,0,1,2.63,2.64Zm0-15.6A2.64,2.64,0,0,1,52,66.2H48.41a2.64,2.64,0,0,1-2.63-2.64v-2.5a2.63,2.63,0,0,1,2.63-2.63H52a2.63,2.63,0,0,1,2.63,2.63Zm0-15.6A2.63,2.63,0,0,1,52,50.59H31.08A2.64,2.64,0,0,1,28.44,48v-2.5a2.64,2.64,0,0,1,2.64-2.64H52a2.64,2.64,0,0,1,2.63,2.64ZM72,79.16a2.64,2.64,0,0,1-2.63,2.64H65.75a2.64,2.64,0,0,1-2.63-2.64V76.67A2.64,2.64,0,0,1,65.75,74h3.61A2.64,2.64,0,0,1,72,76.67Zm0-15.6a2.64,2.64,0,0,1-2.63,2.64H65.75a2.64,2.64,0,0,1-2.63-2.64v-2.5a2.63,2.63,0,0,1,2.63-2.63h3.61A2.63,2.63,0,0,1,72,61.06ZM72,48a2.63,2.63,0,0,1-2.63,2.63H65.75A2.63,2.63,0,0,1,63.12,48v-2.5a2.64,2.64,0,0,1,2.63-2.64h3.61A2.64,2.64,0,0,1,72,45.46Z"/></svg>