<svg xmlns="http://www.w3.org/2000/svg" viewBox="0 0 100 100"><path d="M52.64,5A10.86,10.86,0,0,0,41.92,15.72,10.86,10.86,0,0,0,52.64,26.45,10.73,10.73,0,0,0,52.64,5Z"/><path d="M64.35,26.45a15.74,15.74,0,0,1-11.71,5.27,16.11,16.11,0,0,1-11.88-5.27A15.68,15.68,0,0,0,36.65,37v2.64a2.63,2.63,0,0,0,2.63,2.64H65.83a2.64,2.64,0,0,0,2.63-2.64V37A15.68,15.68,0,0,0,64.35,26.45Z"/><path d="M30.48,85.93,17,59A5.27,5.27,0,0,0,10,56.62L6.47,58.36A2.64,2.64,0,0,0,5.28,61.9L21.1,93.54a2.64,2.64,0,0,0,3.53,1.19L28.1,93A5.27,5.27,0,0,0,30.48,85.93Z"/><path d="M92.84,48.54a5.26,5.26,0,0,0-7,.69L71.47,67a6.38,6.38,0,0,1-3.9,1.68H55.28a2.64,2.64,0,1,1,0-5.27H65.83a5.28,5.28,0,0,0,0-10.55H52c-1.32,0-2-.83-3-1.74a18.32,18.32,0,0,0-16.37-4,19.17,19.17,0,0,0-8.09,4L24.46,51,20.65,54.4l15,30.05H65.83a15.87,15.87,0,0,0,12.65-6.33L94,56A5.31,5.31,0,0,0,92.84,48.54Z"/></svg>