<svg xmlns="http://www.w3.org/2000/svg" viewBox="0 0 100 100"><path d="M90.06,53.09A20.61,20.61,0,0,1,72,57.33a23.25,23.25,0,0,1,1.48,8.2v2.83a14.88,14.88,0,0,1-3.58,9.69H85.3A9.71,9.71,0,0,0,95,68.36V65.53A18.12,18.12,0,0,0,90.06,53.09Z"/><path d="M50,52.64A15.35,15.35,0,1,0,34.65,37.29,15.37,15.37,0,0,0,50,52.64Z"/><path d="M76.83,52.64A15.35,15.35,0,1,0,67,25.56,20.58,20.58,0,0,1,67,49a15.24,15.24,0,0,0,9.88,3.62Z"/><path d="M23.17,52.64A15.24,15.24,0,0,0,33.05,49a20.58,20.58,0,0,1,0-23.46,15.34,15.34,0,1,0-9.88,27.08Z"/><path d="M50,57.91a20.5,20.5,0,0,1-13.23-4.82,18.12,18.12,0,0,0-4.94,12.44v2.83a9.71,9.71,0,0,0,9.7,9.69H58.47a9.71,9.71,0,0,0,9.7-9.69V65.53a18.12,18.12,0,0,0-4.94-12.44A20.5,20.5,0,0,1,50,57.91Z"/><path d="M26.56,65.53A23.25,23.25,0,0,1,28,57.33a20.61,20.61,0,0,1-18.1-4.24A18.12,18.12,0,0,0,5,65.53v2.83a9.71,9.71,0,0,0,9.7,9.69H30.14a14.88,14.88,0,0,1-3.58-9.69Z"/></svg>