<svg xmlns="http://www.w3.org/2000/svg" viewBox="0 0 100 100"><path d="M69.18,70.68l11.61-50.8-3.41-.68-11.48,51A13.68,13.68,0,0,1,69.18,70.68Z"/><path d="M11.21,5,5,11.21h6.21Z"/><path d="M32.93,5H14.31v9.31H5V42.24H32.93ZM26.72,39.14H8.1V19h7.76v3.1H11.21V36H23.62v-6.2h3.1ZM17.41,32l-4.2-4.2,2.2-2.19,2,2,9.77-9.76,2.19,2.19Z"/><path d="M13.6,70.12l-.79,3.14a2,2,0,0,0-.05.42,1.7,1.7,0,0,0,1.39,1.67l37.54,7a13.71,13.71,0,0,1,2.3-6L15.9,68.66A2,2,0,0,0,13.6,70.12Z"/><path d="M17.72,65.86l38.67,7.73a13.92,13.92,0,0,1,6.27-3.12l6.39-28.42L58.69,40,55.75,50.25,37.18,46.54l2.94-10.28L36,35.45v9.89H22.17Z"/><path d="M47.88,37.81l-4.71-.94-2.08,7.28,4.71.94Z"/><path d="M93.09,14.27l-14-2.8-1,4.7,13.76,2.75a2.38,2.38,0,0,0,.46,0h.35a2.37,2.37,0,0,0,.46-4.69Z"/><path d="M72.1,71.82a14.26,14.26,0,0,1,3.47,2.65L78,63.7l-3.89-.77Z"/><path d="M70.17,84.14a4.66,4.66,0,1,1-4.65-4.66A4.65,4.65,0,0,1,70.17,84.14Z"/><path d="M78.08,45.65l3.87.78L82.5,44l-2.78-5.52Z"/><path d="M65.52,73.28A10.86,10.86,0,1,0,76.38,84.14,10.87,10.87,0,0,0,65.52,73.28Zm0,18.62a7.76,7.76,0,1,1,7.76-7.76A7.77,7.77,0,0,1,65.52,91.9Z"/><path d="M74.82,59.9l3.89.78,2.55-11.22-3.87-.78Z"/><path d="M55.64,39.37l-4.71-.95-2.08,7.29,4.71.94Z"/></svg>