<svg xmlns="http://www.w3.org/2000/svg" viewBox="0 0 100 100"><path d="M88.11,16.37c-13,0-13.92,0-32,0H13.4A8.41,8.41,0,0,0,5,24.81V75.23a8.41,8.41,0,0,0,8.4,8.4H86.6a8.41,8.41,0,0,0,8.4-8.4V24.07C95,20.45,91.71,16.37,88.11,16.37ZM69.79,44.42a2.8,2.8,0,1,1-2.8,2.8A2.8,2.8,0,0,1,69.79,44.42Zm-11.2,0a2.8,2.8,0,1,1-2.8,2.8A2.8,2.8,0,0,1,58.59,44.42ZM44.21,69.63a2.8,2.8,0,0,1-2.8,2.8H19a2.81,2.81,0,0,1-2.8-2.8V64a14,14,0,0,1,6.18-11.6,11.21,11.21,0,1,1,15.65,0A14,14,0,0,1,44.21,64ZM81,72.43H58.59a2.8,2.8,0,1,1,0-5.6H81a2.8,2.8,0,0,1,0,5.6Zm0-11.21H58.59a2.8,2.8,0,0,1,0-5.6H81a2.8,2.8,0,0,1,0,5.6ZM81,50a2.8,2.8,0,1,1,2.8-2.8A2.8,2.8,0,0,1,81,50Z"/><path d="M30.21,38.82a5.6,5.6,0,1,0,5.6,5.6A5.6,5.6,0,0,0,30.21,38.82Z"/><path d="M30.21,55.62A8.41,8.41,0,0,0,21.8,64v2.81H38.61V64A8.41,8.41,0,0,0,30.21,55.62Z"/></svg>