<svg xmlns="http://www.w3.org/2000/svg" viewBox="0 0 100 100"><path d="M62.83,16.12a13,13,0,0,0-23.31-5.79A1.53,1.53,0,1,0,42,12.12a9.91,9.91,0,0,1,17.82,4.43,1.53,1.53,0,0,0,1.51,1.31h.22A1.53,1.53,0,0,0,62.83,16.12Z"/><path d="M84.87,33.2l-4.58-7.63A1.51,1.51,0,0,0,79,24.83H74.6a1.53,1.53,0,1,0,0,3.05h3.52l2.74,4.58H19.13l2.75-4.58H23.5a1.53,1.53,0,0,0,0-3.05H21a1.51,1.51,0,0,0-1.31.74L15.13,33.2a1.53,1.53,0,0,0,1.31,2.31H83.56a1.54,1.54,0,0,0,1.33-.78A1.52,1.52,0,0,0,84.87,33.2Z"/><path d="M77.26,19.13a1.51,1.51,0,0,0-1-.68L55.52,13.59a1.5,1.5,0,0,0-1.15.19,1.47,1.47,0,0,0-.68,1l-1.57,6.7a1.52,1.52,0,0,0,3,.69l1.22-5.21,17.82,4.16-2.8,12a1.52,1.52,0,0,0,1.14,1.83,1.45,1.45,0,0,0,.35,0,1.51,1.51,0,0,0,1.48-1.18l3.15-13.46A1.51,1.51,0,0,0,77.26,19.13Z"/><path d="M50.81,22.74,49.42,11a1.57,1.57,0,0,0-.57-1,1.52,1.52,0,0,0-1.13-.31l-25.51,3a1.53,1.53,0,0,0-1.34,1.7L23.19,34a1.52,1.52,0,0,0,1.51,1.35h.18a1.53,1.53,0,0,0,1.34-1.69l-2.14-18.1,22.49-2.66L47.78,23.1a1.53,1.53,0,0,0,3-.36Z"/><path d="M62.87,33.4l-3-12.59A1.52,1.52,0,0,0,58,19.69L33.43,25.6a1.53,1.53,0,0,0-1.13,1.84l1.52,6.29a1.52,1.52,0,1,0,3-.71l-1.16-4.81L57.23,23,59.9,34.12a1.54,1.54,0,0,0,1.49,1.17,1.48,1.48,0,0,0,.35,0A1.52,1.52,0,0,0,62.87,33.4Z"/><path d="M85.08,33.91a1.52,1.52,0,0,0-1.52-1.45H16.44a1.52,1.52,0,0,0-1.52,1.45L11.87,93.4A1.51,1.51,0,0,0,13.39,95H86.61a1.51,1.51,0,0,0,1.52-1.6ZM15,92l2.9-56.44H82.11L85,92Z"/><path d="M61.44,38.56A4.58,4.58,0,1,0,66,43.14,4.59,4.59,0,0,0,61.44,38.56Zm0,6.1A1.53,1.53,0,1,1,63,43.14,1.53,1.53,0,0,1,61.44,44.66Z"/><path d="M38.56,38.56a4.58,4.58,0,1,0,4.57,4.58A4.59,4.59,0,0,0,38.56,38.56Zm0,6.1a1.53,1.53,0,1,1,1.52-1.52A1.53,1.53,0,0,1,38.56,44.66Z"/><path d="M61.44,43.14h-.12a1.52,1.52,0,0,0-1.52,1.52,1.63,1.63,0,0,0,.11.59v7.8a9.92,9.92,0,1,1-19.83,0V44.66a1.53,1.53,0,0,0-3,0v8.39a13,13,0,0,0,25.94,0V44.66A1.53,1.53,0,0,0,61.44,43.14Z"/></svg>