<svg xmlns="http://www.w3.org/2000/svg" viewBox="0 0 100 100"><path d="M51.43,89.92c6.12-.87,11.48-7.25,14.85-16.68a72,72,0,0,0-14.85-1.75Z"/><path d="M61.2,88.42q.55-.15,1.08-.33l.9-.3,1.05-.38.89-.35,1-.43.88-.4,1-.48.86-.45,1-.53.84-.49.93-.57c.27-.18.54-.35.81-.54s.6-.41.9-.62l.79-.57L75,81.3l.76-.61.83-.73.73-.65.8-.78.69-.69.13-.13a47.37,47.37,0,0,0-9.8-3.77A35.59,35.59,0,0,1,60,88.77l.35-.08Z"/><path d="M90,51.43H72.86A74.38,74.38,0,0,1,70,71.21a49.83,49.83,0,0,1,10.85,4.32A39.94,39.94,0,0,0,90,51.43Z"/><path d="M51.43,48.57H70a71.67,71.67,0,0,0-2.82-19.08,75.25,75.25,0,0,1-15.75,1.88Z"/><path d="M51.43,10.08V28.51a72,72,0,0,0,14.85-1.75C62.91,17.33,57.55,11,51.43,10.08Z"/><path d="M51.43,68.63a75.25,75.25,0,0,1,15.75,1.88A71.67,71.67,0,0,0,70,51.43H51.43Z"/><path d="M80.82,24.47A49.83,49.83,0,0,1,70,28.79a74.38,74.38,0,0,1,2.89,19.78H90A39.94,39.94,0,0,0,80.82,24.47Z"/><path d="M78.89,22.3l-.12-.13-.69-.68c-.27-.27-.53-.53-.81-.79s-.48-.42-.72-.64l-.84-.74-.75-.6c-.29-.24-.58-.47-.88-.69l-.78-.57-.9-.63-.81-.53c-.31-.2-.62-.4-.94-.58s-.55-.33-.83-.49l-1-.53L68,14.25l-1-.48-.87-.4-1-.43-.88-.35-1-.38-.9-.3-1.08-.33-.9-.26-.35-.08a35.36,35.36,0,0,1,9.14,14.84A47.83,47.83,0,0,0,78.89,22.3Z"/><path d="M10,48.57H27.14A74.38,74.38,0,0,1,30,28.79a49.83,49.83,0,0,1-10.85-4.32A39.94,39.94,0,0,0,10,48.57Z"/><path d="M48.57,89.92V71.49a72,72,0,0,0-14.85,1.75C37.09,82.67,42.45,89.05,48.57,89.92Z"/><path d="M48.57,51.43H30a71.67,71.67,0,0,0,2.82,19.08,75.25,75.25,0,0,1,15.75-1.88Z"/><path d="M48.57,10.08c-6.12.87-11.48,7.25-14.85,16.68a72,72,0,0,0,14.85,1.75Z"/><path d="M48.57,31.37a75.25,75.25,0,0,1-15.75-1.88A71.67,71.67,0,0,0,30,48.57H48.57Z"/><path d="M40,11.24l-.34.08-.91.26-1.07.32-.9.31-1,.38-.89.35-1,.43-.88.4-1,.48-.86.45-.95.53c-.29.16-.57.32-.84.49l-.93.57-.81.54c-.31.2-.6.41-.9.62l-.79.58-.87.67-.76.62c-.28.23-.55.48-.83.72s-.49.43-.73.66l-.8.77-.69.69-.13.14a48.52,48.52,0,0,0,9.8,3.77A35.44,35.44,0,0,1,40,11.24Z"/><path d="M21.92,78.51c.27.27.53.53.81.79s.48.42.72.64l.84.74.75.6c.29.24.58.47.88.69l.78.57.9.64.81.53.94.58c.27.16.55.33.83.48l1,.54.86.44c.33.17.66.33,1,.48l.87.4,1,.43.88.35,1,.38.9.31,1.08.32.9.26.35.09a35.36,35.36,0,0,1-9.14-14.84,47.72,47.72,0,0,0-9.8,3.77,1.59,1.59,0,0,0,.13.13C21.46,78.06,21.69,78.29,21.92,78.51Z"/><path d="M19.18,75.53A49.83,49.83,0,0,1,30,71.21a74.38,74.38,0,0,1-2.89-19.78H10A39.94,39.94,0,0,0,19.18,75.53Z"/></svg>