<svg xmlns="http://www.w3.org/2000/svg" viewBox="0 0 100 100"><defs><style>.a{fill-rule:evenodd;}</style></defs><path class="a" d="M94.87,59.35,42.76,69.87a17.71,17.71,0,0,0,.42,12.46l51-11.51L94.9,74,42.58,85.79l-1.51-.27L6.66,64.18C4.77,59.87,4.15,55.5,6.66,51L10,50.47v1.14l44.1,9.85a14.66,14.66,0,0,0,1.06-4.71,15.92,15.92,0,0,0-.73-5.57l-44.76-9,.42-3.1.22-.06h0L13,38.17l.1-2.76,41,9.91a14,14,0,0,0,1-4.32,14.84,14.84,0,0,0-.67-5.17L13,26.71v-4.2l32.6-8.3L83.4,21.89c2,3.7,1.51,7.14,0,10.51L80.69,34l5,.77c2.16,3.88,1.63,7.65,0,11.36l-8.29,5.14L95,56l-.12,3.34ZM45.34,77.88l.16.79L93,68.86l-.15-.79L45.34,77.9Zm-.15-3.22.16.79,47.52-9.8-.16-.8L45.19,74.67ZM45,71.8l.22,1,47.5-9.82L92.54,62Z"/></svg>